<mxfile host="app.diagrams.net" modified="2024-02-12T19:45:06.776Z" agent="Mozilla/5.0 (Macintosh; Intel Mac OS X 10_15_7) AppleWebKit/537.36 (KHTML, like Gecko) Chrome/121.0.0.0 Safari/537.36" etag="9SJffIJeAjzPoKuGisM_" version="23.1.2" type="google">
  <diagram name="PÃ¡gina-1" id="5wqlz0eoU-5Uq2Y5e7fv">
    <mxGraphModel grid="1" page="1" gridSize="10" guides="1" tooltips="1" connect="1" arrows="1" fold="1" pageScale="1" pageWidth="827" pageHeight="1169" math="0" shadow="0">
      <root>
        <mxCell id="0" />
        <mxCell id="1" parent="0" />
        <mxCell id="AaM262HjDLFYhlkMXgXS-1" value="MKT" style="image;aspect=fixed;html=1;points=[];align=center;fontSize=12;image=img/lib/azure2/databases/SQL_Database.svg;" vertex="1" parent="1">
          <mxGeometry x="200" y="130" width="48" height="64" as="geometry" />
        </mxCell>
        <mxCell id="AaM262HjDLFYhlkMXgXS-2" value="RENOVACIONES_SCF" style="swimlane;fontStyle=0;childLayout=stackLayout;horizontal=1;startSize=50;horizontalStack=0;resizeParent=1;resizeParentMax=0;resizeLast=0;collapsible=1;marginBottom=0;whiteSpace=wrap;html=1;" vertex="1" parent="1">
          <mxGeometry x="10" y="290" width="200" height="260" as="geometry">
            <mxRectangle x="310" y="20" width="240" height="40" as="alternateBounds" />
          </mxGeometry>
        </mxCell>
        <mxCell id="AaM262HjDLFYhlkMXgXS-3" value="PERIODO_COMERCIAL_CR" style="text;strokeColor=none;fillColor=none;align=left;verticalAlign=middle;spacingLeft=4;spacingRight=4;overflow=hidden;points=[[0,0.5],[1,0.5]];portConstraint=eastwest;rotatable=0;whiteSpace=wrap;html=1;" vertex="1" parent="AaM262HjDLFYhlkMXgXS-2">
          <mxGeometry y="50" width="200" height="30" as="geometry" />
        </mxCell>
        <mxCell id="AaM262HjDLFYhlkMXgXS-4" value="OPERACION" style="text;strokeColor=none;fillColor=none;align=left;verticalAlign=middle;spacingLeft=4;spacingRight=4;overflow=hidden;points=[[0,0.5],[1,0.5]];portConstraint=eastwest;rotatable=0;whiteSpace=wrap;html=1;" vertex="1" parent="AaM262HjDLFYhlkMXgXS-2">
          <mxGeometry y="80" width="200" height="30" as="geometry" />
        </mxCell>
        <mxCell id="AaM262HjDLFYhlkMXgXS-5" value="CR_OPERACION" style="text;strokeColor=none;fillColor=none;align=left;verticalAlign=middle;spacingLeft=4;spacingRight=4;overflow=hidden;points=[[0,0.5],[1,0.5]];portConstraint=eastwest;rotatable=0;whiteSpace=wrap;html=1;" vertex="1" parent="AaM262HjDLFYhlkMXgXS-2">
          <mxGeometry y="110" width="200" height="30" as="geometry" />
        </mxCell>
        <mxCell id="AaM262HjDLFYhlkMXgXS-26" value="TIPO_RE" style="text;strokeColor=none;fillColor=none;align=left;verticalAlign=middle;spacingLeft=4;spacingRight=4;overflow=hidden;points=[[0,0.5],[1,0.5]];portConstraint=eastwest;rotatable=0;whiteSpace=wrap;html=1;" vertex="1" parent="AaM262HjDLFYhlkMXgXS-2">
          <mxGeometry y="140" width="200" height="30" as="geometry" />
        </mxCell>
        <mxCell id="AaM262HjDLFYhlkMXgXS-28" value="NUEVO_COMPRADOR" style="text;strokeColor=none;fillColor=none;align=left;verticalAlign=middle;spacingLeft=4;spacingRight=4;overflow=hidden;points=[[0,0.5],[1,0.5]];portConstraint=eastwest;rotatable=0;whiteSpace=wrap;html=1;" vertex="1" parent="AaM262HjDLFYhlkMXgXS-2">
          <mxGeometry y="170" width="200" height="30" as="geometry" />
        </mxCell>
        <mxCell id="AaM262HjDLFYhlkMXgXS-27" value="CARGA_MANUAL" style="text;strokeColor=none;fillColor=none;align=left;verticalAlign=middle;spacingLeft=4;spacingRight=4;overflow=hidden;points=[[0,0.5],[1,0.5]];portConstraint=eastwest;rotatable=0;whiteSpace=wrap;html=1;" vertex="1" parent="AaM262HjDLFYhlkMXgXS-2">
          <mxGeometry y="200" width="200" height="30" as="geometry" />
        </mxCell>
        <mxCell id="AaM262HjDLFYhlkMXgXS-29" value="FECHA_INGRESO_REGISTRO" style="text;strokeColor=none;fillColor=none;align=left;verticalAlign=middle;spacingLeft=4;spacingRight=4;overflow=hidden;points=[[0,0.5],[1,0.5]];portConstraint=eastwest;rotatable=0;whiteSpace=wrap;html=1;" vertex="1" parent="AaM262HjDLFYhlkMXgXS-2">
          <mxGeometry y="230" width="200" height="30" as="geometry" />
        </mxCell>
        <mxCell id="AaM262HjDLFYhlkMXgXS-30" value="CLASIFICACION_MODELOS_ESG" style="swimlane;fontStyle=0;childLayout=stackLayout;horizontal=1;startSize=30;horizontalStack=0;resizeParent=1;resizeParentMax=0;resizeLast=0;collapsible=1;marginBottom=0;whiteSpace=wrap;html=1;" vertex="1" parent="1">
          <mxGeometry x="274" y="290" width="206" height="150" as="geometry" />
        </mxCell>
        <mxCell id="AaM262HjDLFYhlkMXgXS-31" value="MARCA_VEHICULO" style="text;strokeColor=none;fillColor=none;align=left;verticalAlign=middle;spacingLeft=4;spacingRight=4;overflow=hidden;points=[[0,0.5],[1,0.5]];portConstraint=eastwest;rotatable=0;whiteSpace=wrap;html=1;" vertex="1" parent="AaM262HjDLFYhlkMXgXS-30">
          <mxGeometry y="30" width="206" height="30" as="geometry" />
        </mxCell>
        <mxCell id="AaM262HjDLFYhlkMXgXS-32" value="MODELO_VEHICULO" style="text;strokeColor=none;fillColor=none;align=left;verticalAlign=middle;spacingLeft=4;spacingRight=4;overflow=hidden;points=[[0,0.5],[1,0.5]];portConstraint=eastwest;rotatable=0;whiteSpace=wrap;html=1;" vertex="1" parent="AaM262HjDLFYhlkMXgXS-30">
          <mxGeometry y="60" width="206" height="30" as="geometry" />
        </mxCell>
        <mxCell id="AaM262HjDLFYhlkMXgXS-34" value="TIPO_ENERGIA" style="text;strokeColor=none;fillColor=none;align=left;verticalAlign=middle;spacingLeft=4;spacingRight=4;overflow=hidden;points=[[0,0.5],[1,0.5]];portConstraint=eastwest;rotatable=0;whiteSpace=wrap;html=1;" vertex="1" parent="AaM262HjDLFYhlkMXgXS-30">
          <mxGeometry y="90" width="206" height="30" as="geometry" />
        </mxCell>
        <mxCell id="AaM262HjDLFYhlkMXgXS-33" value="FECHA_REGISTRO" style="text;strokeColor=none;fillColor=none;align=left;verticalAlign=middle;spacingLeft=4;spacingRight=4;overflow=hidden;points=[[0,0.5],[1,0.5]];portConstraint=eastwest;rotatable=0;whiteSpace=wrap;html=1;" vertex="1" parent="AaM262HjDLFYhlkMXgXS-30">
          <mxGeometry y="120" width="206" height="30" as="geometry" />
        </mxCell>
        <mxCell id="AaM262HjDLFYhlkMXgXS-35" style="edgeStyle=orthogonalEdgeStyle;rounded=0;orthogonalLoop=1;jettySize=auto;html=1;exitX=0.25;exitY=0;exitDx=0;exitDy=0;entryX=0.521;entryY=1;entryDx=0;entryDy=0;entryPerimeter=0;" edge="1" parent="1" source="AaM262HjDLFYhlkMXgXS-2" target="AaM262HjDLFYhlkMXgXS-1">
          <mxGeometry relative="1" as="geometry" />
        </mxCell>
        <mxCell id="AaM262HjDLFYhlkMXgXS-36" style="edgeStyle=orthogonalEdgeStyle;rounded=0;orthogonalLoop=1;jettySize=auto;html=1;exitX=0.25;exitY=0;exitDx=0;exitDy=0;entryX=0.5;entryY=0.984;entryDx=0;entryDy=0;entryPerimeter=0;" edge="1" parent="1" source="AaM262HjDLFYhlkMXgXS-30" target="AaM262HjDLFYhlkMXgXS-1">
          <mxGeometry relative="1" as="geometry" />
        </mxCell>
        <mxCell id="AaM262HjDLFYhlkMXgXS-38" style="edgeStyle=orthogonalEdgeStyle;rounded=0;orthogonalLoop=1;jettySize=auto;html=1;" edge="1" parent="1" source="AaM262HjDLFYhlkMXgXS-37" target="AaM262HjDLFYhlkMXgXS-1">
          <mxGeometry relative="1" as="geometry" />
        </mxCell>
        <mxCell id="AaM262HjDLFYhlkMXgXS-37" value="200.114.89.20" style="image;aspect=fixed;html=1;points=[];align=center;fontSize=12;image=img/lib/azure2/other/Fiji.svg;" vertex="1" parent="1">
          <mxGeometry x="197" width="54" height="68" as="geometry" />
        </mxCell>
        <mxCell id="1AO6JIZZQNKwmxP4tzIM-9" style="edgeStyle=orthogonalEdgeStyle;rounded=0;orthogonalLoop=1;jettySize=auto;html=1;exitX=0.5;exitY=1;exitDx=0;exitDy=0;exitPerimeter=0;" edge="1" parent="1" source="AaM262HjDLFYhlkMXgXS-39" target="1AO6JIZZQNKwmxP4tzIM-5">
          <mxGeometry relative="1" as="geometry" />
        </mxCell>
        <mxCell id="AaM262HjDLFYhlkMXgXS-39" value="GS_REGISTRAR&lt;br&gt;_RENOVACIONES" style="shape=note;whiteSpace=wrap;html=1;backgroundOutline=1;darkOpacity=0.05;" vertex="1" parent="1">
          <mxGeometry x="370" y="610" width="105" height="130" as="geometry" />
        </mxCell>
        <mxCell id="AaM262HjDLFYhlkMXgXS-40" style="edgeStyle=orthogonalEdgeStyle;rounded=0;orthogonalLoop=1;jettySize=auto;html=1;exitX=0.5;exitY=0;exitDx=0;exitDy=0;exitPerimeter=0;entryX=0.49;entryY=0.967;entryDx=0;entryDy=0;entryPerimeter=0;" edge="1" parent="1" source="AaM262HjDLFYhlkMXgXS-39" target="AaM262HjDLFYhlkMXgXS-29">
          <mxGeometry relative="1" as="geometry" />
        </mxCell>
        <mxCell id="1AO6JIZZQNKwmxP4tzIM-1" value="Consumer" style="image;aspect=fixed;html=1;points=[];align=center;fontSize=12;image=img/lib/azure2/databases/SQL_Database.svg;" vertex="1" parent="1">
          <mxGeometry x="398.5" y="940" width="48" height="64" as="geometry" />
        </mxCell>
        <mxCell id="1AO6JIZZQNKwmxP4tzIM-6" value="" style="edgeStyle=orthogonalEdgeStyle;rounded=0;orthogonalLoop=1;jettySize=auto;html=1;" edge="1" parent="1" source="1AO6JIZZQNKwmxP4tzIM-5" target="1AO6JIZZQNKwmxP4tzIM-1">
          <mxGeometry relative="1" as="geometry" />
        </mxCell>
        <mxCell id="1AO6JIZZQNKwmxP4tzIM-5" value="200.114.89.22" style="image;aspect=fixed;html=1;points=[];align=center;fontSize=12;image=img/lib/azure2/other/Fiji.svg;" vertex="1" parent="1">
          <mxGeometry x="395.5" y="800" width="54" height="68" as="geometry" />
        </mxCell>
        <mxCell id="1AO6JIZZQNKwmxP4tzIM-36" style="edgeStyle=orthogonalEdgeStyle;rounded=0;orthogonalLoop=1;jettySize=auto;html=1;exitX=0.5;exitY=0;exitDx=0;exitDy=0;" edge="1" parent="1" source="1AO6JIZZQNKwmxP4tzIM-10" target="1AO6JIZZQNKwmxP4tzIM-1">
          <mxGeometry relative="1" as="geometry" />
        </mxCell>
        <mxCell id="1AO6JIZZQNKwmxP4tzIM-10" value="DDAS_DIAS_&lt;br&gt;CONSUMER_NUEVA" style="swimlane;fontStyle=0;childLayout=stackLayout;horizontal=1;startSize=30;horizontalStack=0;resizeParent=1;resizeParentMax=0;resizeLast=0;collapsible=1;marginBottom=0;whiteSpace=wrap;html=1;" vertex="1" parent="1">
          <mxGeometry x="309" y="1100" width="227" height="750" as="geometry" />
        </mxCell>
        <mxCell id="1AO6JIZZQNKwmxP4tzIM-11" value="PERIODO&lt;span style=&quot;white-space: pre;&quot;&gt;&#x9;&lt;/span&gt;&lt;span style=&quot;white-space: pre;&quot;&gt;&#x9;&lt;/span&gt;&lt;span style=&quot;white-space: pre;&quot;&gt;&#x9;&lt;/span&gt;&lt;span style=&quot;white-space: pre;&quot;&gt;&#x9;&lt;/span&gt;&lt;span style=&quot;white-space: pre;&quot;&gt;&#x9;&lt;/span&gt;PK&lt;span style=&quot;white-space: pre;&quot;&gt;&lt;span style=&quot;white-space: pre;&quot;&gt;&#x9;&lt;/span&gt;&lt;/span&gt;" style="text;strokeColor=none;fillColor=none;align=left;verticalAlign=middle;spacingLeft=4;spacingRight=4;overflow=hidden;points=[[0,0.5],[1,0.5]];portConstraint=eastwest;rotatable=0;whiteSpace=wrap;html=1;" vertex="1" parent="1AO6JIZZQNKwmxP4tzIM-10">
          <mxGeometry y="30" width="227" height="30" as="geometry" />
        </mxCell>
        <mxCell id="1AO6JIZZQNKwmxP4tzIM-12" value="DDAS_FEC_PROC" style="text;strokeColor=none;fillColor=none;align=left;verticalAlign=middle;spacingLeft=4;spacingRight=4;overflow=hidden;points=[[0,0.5],[1,0.5]];portConstraint=eastwest;rotatable=0;whiteSpace=wrap;html=1;" vertex="1" parent="1AO6JIZZQNKwmxP4tzIM-10">
          <mxGeometry y="60" width="227" height="30" as="geometry" />
        </mxCell>
        <mxCell id="1AO6JIZZQNKwmxP4tzIM-16" value="DDAS_NRT_PPAL" style="text;strokeColor=none;fillColor=none;align=left;verticalAlign=middle;spacingLeft=4;spacingRight=4;overflow=hidden;points=[[0,0.5],[1,0.5]];portConstraint=eastwest;rotatable=0;whiteSpace=wrap;html=1;" vertex="1" parent="1AO6JIZZQNKwmxP4tzIM-10">
          <mxGeometry y="90" width="227" height="30" as="geometry" />
        </mxCell>
        <mxCell id="1AO6JIZZQNKwmxP4tzIM-14" value="DDAS_DRT_PPAL" style="text;strokeColor=none;fillColor=none;align=left;verticalAlign=middle;spacingLeft=4;spacingRight=4;overflow=hidden;points=[[0,0.5],[1,0.5]];portConstraint=eastwest;rotatable=0;whiteSpace=wrap;html=1;" vertex="1" parent="1AO6JIZZQNKwmxP4tzIM-10">
          <mxGeometry y="120" width="227" height="30" as="geometry" />
        </mxCell>
        <mxCell id="1AO6JIZZQNKwmxP4tzIM-17" value="DDAS_ID_ENTIDAD" style="text;strokeColor=none;fillColor=none;align=left;verticalAlign=middle;spacingLeft=4;spacingRight=4;overflow=hidden;points=[[0,0.5],[1,0.5]];portConstraint=eastwest;rotatable=0;whiteSpace=wrap;html=1;" vertex="1" parent="1AO6JIZZQNKwmxP4tzIM-10">
          <mxGeometry y="150" width="227" height="30" as="geometry" />
        </mxCell>
        <mxCell id="1AO6JIZZQNKwmxP4tzIM-18" value="DDAS_ID_SUCURSAL_ALTA" style="text;strokeColor=none;fillColor=none;align=left;verticalAlign=middle;spacingLeft=4;spacingRight=4;overflow=hidden;points=[[0,0.5],[1,0.5]];portConstraint=eastwest;rotatable=0;whiteSpace=wrap;html=1;" vertex="1" parent="1AO6JIZZQNKwmxP4tzIM-10">
          <mxGeometry y="180" width="227" height="30" as="geometry" />
        </mxCell>
        <mxCell id="1AO6JIZZQNKwmxP4tzIM-19" value="DDAS_ID_NUMERO_OPERAC" style="text;strokeColor=none;fillColor=none;align=left;verticalAlign=middle;spacingLeft=4;spacingRight=4;overflow=hidden;points=[[0,0.5],[1,0.5]];portConstraint=eastwest;rotatable=0;whiteSpace=wrap;html=1;" vertex="1" parent="1AO6JIZZQNKwmxP4tzIM-10">
          <mxGeometry y="210" width="227" height="30" as="geometry" />
        </mxCell>
        <mxCell id="1AO6JIZZQNKwmxP4tzIM-15" value="DDAS_ID_PRODUCTO_ALT" style="text;strokeColor=none;fillColor=none;align=left;verticalAlign=middle;spacingLeft=4;spacingRight=4;overflow=hidden;points=[[0,0.5],[1,0.5]];portConstraint=eastwest;rotatable=0;whiteSpace=wrap;html=1;" vertex="1" parent="1AO6JIZZQNKwmxP4tzIM-10">
          <mxGeometry y="240" width="227" height="30" as="geometry" />
        </mxCell>
        <mxCell id="1AO6JIZZQNKwmxP4tzIM-20" value="DDAS_ID_SUBPRODUC_ALT" style="text;strokeColor=none;fillColor=none;align=left;verticalAlign=middle;spacingLeft=4;spacingRight=4;overflow=hidden;points=[[0,0.5],[1,0.5]];portConstraint=eastwest;rotatable=0;whiteSpace=wrap;html=1;" vertex="1" parent="1AO6JIZZQNKwmxP4tzIM-10">
          <mxGeometry y="270" width="227" height="30" as="geometry" />
        </mxCell>
        <mxCell id="1AO6JIZZQNKwmxP4tzIM-25" value="DDAS_ID_CONCEPTO" style="text;strokeColor=none;fillColor=none;align=left;verticalAlign=middle;spacingLeft=4;spacingRight=4;overflow=hidden;points=[[0,0.5],[1,0.5]];portConstraint=eastwest;rotatable=0;whiteSpace=wrap;html=1;" vertex="1" parent="1AO6JIZZQNKwmxP4tzIM-10">
          <mxGeometry y="300" width="227" height="30" as="geometry" />
        </mxCell>
        <mxCell id="1AO6JIZZQNKwmxP4tzIM-23" value="DDAS_MTO_ORIG_CDTO_MO" style="text;strokeColor=none;fillColor=none;align=left;verticalAlign=middle;spacingLeft=4;spacingRight=4;overflow=hidden;points=[[0,0.5],[1,0.5]];portConstraint=eastwest;rotatable=0;whiteSpace=wrap;html=1;" vertex="1" parent="1AO6JIZZQNKwmxP4tzIM-10">
          <mxGeometry y="330" width="227" height="30" as="geometry" />
        </mxCell>
        <mxCell id="1AO6JIZZQNKwmxP4tzIM-24" value="DDAS_MTO_RENO_CDTOP_MO" style="text;strokeColor=none;fillColor=none;align=left;verticalAlign=middle;spacingLeft=4;spacingRight=4;overflow=hidden;points=[[0,0.5],[1,0.5]];portConstraint=eastwest;rotatable=0;whiteSpace=wrap;html=1;" vertex="1" parent="1AO6JIZZQNKwmxP4tzIM-10">
          <mxGeometry y="360" width="227" height="30" as="geometry" />
        </mxCell>
        <mxCell id="1AO6JIZZQNKwmxP4tzIM-22" value="DDAS_PRODUCTO_SBIF" style="text;strokeColor=none;fillColor=none;align=left;verticalAlign=middle;spacingLeft=4;spacingRight=4;overflow=hidden;points=[[0,0.5],[1,0.5]];portConstraint=eastwest;rotatable=0;whiteSpace=wrap;html=1;" vertex="1" parent="1AO6JIZZQNKwmxP4tzIM-10">
          <mxGeometry y="390" width="227" height="30" as="geometry" />
        </mxCell>
        <mxCell id="1AO6JIZZQNKwmxP4tzIM-21" value="DDAS_FEC_TRN_CURSE" style="text;strokeColor=none;fillColor=none;align=left;verticalAlign=middle;spacingLeft=4;spacingRight=4;overflow=hidden;points=[[0,0.5],[1,0.5]];portConstraint=eastwest;rotatable=0;whiteSpace=wrap;html=1;" vertex="1" parent="1AO6JIZZQNKwmxP4tzIM-10">
          <mxGeometry y="420" width="227" height="30" as="geometry" />
        </mxCell>
        <mxCell id="1AO6JIZZQNKwmxP4tzIM-29" value="DDAS_FEC_OTOR_CDTO" style="text;strokeColor=none;fillColor=none;align=left;verticalAlign=middle;spacingLeft=4;spacingRight=4;overflow=hidden;points=[[0,0.5],[1,0.5]];portConstraint=eastwest;rotatable=0;whiteSpace=wrap;html=1;" vertex="1" parent="1AO6JIZZQNKwmxP4tzIM-10">
          <mxGeometry y="450" width="227" height="30" as="geometry" />
        </mxCell>
        <mxCell id="1AO6JIZZQNKwmxP4tzIM-31" value="DDAS_FECH_EXTI_CDTO" style="text;strokeColor=none;fillColor=none;align=left;verticalAlign=middle;spacingLeft=4;spacingRight=4;overflow=hidden;points=[[0,0.5],[1,0.5]];portConstraint=eastwest;rotatable=0;whiteSpace=wrap;html=1;" vertex="1" parent="1AO6JIZZQNKwmxP4tzIM-10">
          <mxGeometry y="480" width="227" height="30" as="geometry" />
        </mxCell>
        <mxCell id="1AO6JIZZQNKwmxP4tzIM-30" value="DDAS_FEC_TRAS_GASTG" style="text;strokeColor=none;fillColor=none;align=left;verticalAlign=middle;spacingLeft=4;spacingRight=4;overflow=hidden;points=[[0,0.5],[1,0.5]];portConstraint=eastwest;rotatable=0;whiteSpace=wrap;html=1;" vertex="1" parent="1AO6JIZZQNKwmxP4tzIM-10">
          <mxGeometry y="510" width="227" height="30" as="geometry" />
        </mxCell>
        <mxCell id="1AO6JIZZQNKwmxP4tzIM-28" value="DDAS_FEC_VCTO_CASTG" style="text;strokeColor=none;fillColor=none;align=left;verticalAlign=middle;spacingLeft=4;spacingRight=4;overflow=hidden;points=[[0,0.5],[1,0.5]];portConstraint=eastwest;rotatable=0;whiteSpace=wrap;html=1;" vertex="1" parent="1AO6JIZZQNKwmxP4tzIM-10">
          <mxGeometry y="540" width="227" height="30" as="geometry" />
        </mxCell>
        <mxCell id="1AO6JIZZQNKwmxP4tzIM-33" value="DDAS_FEC_VCTO_MASANTG" style="text;strokeColor=none;fillColor=none;align=left;verticalAlign=middle;spacingLeft=4;spacingRight=4;overflow=hidden;points=[[0,0.5],[1,0.5]];portConstraint=eastwest;rotatable=0;whiteSpace=wrap;html=1;" vertex="1" parent="1AO6JIZZQNKwmxP4tzIM-10">
          <mxGeometry y="570" width="227" height="30" as="geometry" />
        </mxCell>
        <mxCell id="1AO6JIZZQNKwmxP4tzIM-34" value="DDAS_FEC_1ER_VCTO" style="text;strokeColor=none;fillColor=none;align=left;verticalAlign=middle;spacingLeft=4;spacingRight=4;overflow=hidden;points=[[0,0.5],[1,0.5]];portConstraint=eastwest;rotatable=0;whiteSpace=wrap;html=1;" vertex="1" parent="1AO6JIZZQNKwmxP4tzIM-10">
          <mxGeometry y="600" width="227" height="30" as="geometry" />
        </mxCell>
        <mxCell id="1AO6JIZZQNKwmxP4tzIM-35" value="Item 3" style="text;strokeColor=none;fillColor=none;align=left;verticalAlign=middle;spacingLeft=4;spacingRight=4;overflow=hidden;points=[[0,0.5],[1,0.5]];portConstraint=eastwest;rotatable=0;whiteSpace=wrap;html=1;" vertex="1" parent="1AO6JIZZQNKwmxP4tzIM-10">
          <mxGeometry y="630" width="227" height="30" as="geometry" />
        </mxCell>
        <mxCell id="1AO6JIZZQNKwmxP4tzIM-32" value="Item 3" style="text;strokeColor=none;fillColor=none;align=left;verticalAlign=middle;spacingLeft=4;spacingRight=4;overflow=hidden;points=[[0,0.5],[1,0.5]];portConstraint=eastwest;rotatable=0;whiteSpace=wrap;html=1;" vertex="1" parent="1AO6JIZZQNKwmxP4tzIM-10">
          <mxGeometry y="660" width="227" height="30" as="geometry" />
        </mxCell>
        <mxCell id="1AO6JIZZQNKwmxP4tzIM-26" value="Item 3" style="text;strokeColor=none;fillColor=none;align=left;verticalAlign=middle;spacingLeft=4;spacingRight=4;overflow=hidden;points=[[0,0.5],[1,0.5]];portConstraint=eastwest;rotatable=0;whiteSpace=wrap;html=1;" vertex="1" parent="1AO6JIZZQNKwmxP4tzIM-10">
          <mxGeometry y="690" width="227" height="30" as="geometry" />
        </mxCell>
        <mxCell id="1AO6JIZZQNKwmxP4tzIM-13" value="Item 3" style="text;strokeColor=none;fillColor=none;align=left;verticalAlign=middle;spacingLeft=4;spacingRight=4;overflow=hidden;points=[[0,0.5],[1,0.5]];portConstraint=eastwest;rotatable=0;whiteSpace=wrap;html=1;" vertex="1" parent="1AO6JIZZQNKwmxP4tzIM-10">
          <mxGeometry y="720" width="227" height="30" as="geometry" />
        </mxCell>
      </root>
    </mxGraphModel>
  </diagram>
</mxfile>
